<svg width="28" height="28" xmlns="http://www.w3.org/2000/svg"><path d="M0 8a8 8 0 018-8h12a8 8 0 018 8v12a8 8 0 01-8 8H8a8 8 0 01-8-8V8z" fill="#6944FF"/><path fill-rule="evenodd" clip-rule="evenodd" d="M4.364 14.382a.515.515 0 010-.728l5.75-5.75a.515.515 0 01.728 0l1.39 1.39-4.325 4.324a.515.515 0 000 .728l4.36 4.36-1.425 1.426a.515.515 0 01-.728 0l-5.75-5.75zm9.654 2.574l-1.75 1.75 1.39 1.39a.515.515 0 00.727 0l1.386-1.386 1.387 1.386a.515.515 0 00.728 0l5.75-5.75a.515.515 0 000-.728l-5.75-5.75a.515.515 0 00-.728 0L15.77 9.254l-1.386-1.386a.515.515 0 00-.728 0l-1.425 1.425 1.75 1.75-2.574 2.575a.515.515 0 000 .728l2.61 2.61zm-.036-5.912l2.61 2.61a.515.515 0 010 .728l-2.574 2.574 1.753 1.754 4.364-4.364a.515.515 0 000-.728l-4.364-4.364-1.789 1.79z" fill="#fff"/></svg>