<svg width="156" height="33" fill="none" xmlns="http://www.w3.org/2000/svg"><path d="M39.737 24.368V7.204h6.57c1.24 0 2.272.195 3.093.587.827.385 1.444.913 1.852 1.584.414.67.62 1.43.62 2.28 0 .698-.134 1.295-.402 1.793a3.385 3.385 0 01-1.081 1.198 4.576 4.576 0 01-1.517.662v.168c.609.033 1.193.22 1.752.561.564.336 1.025.81 1.383 1.425.357.615.536 1.358.536 2.23 0 .888-.215 1.687-.645 2.396-.43.704-1.079 1.26-1.945 1.668-.866.408-1.955.612-3.268.612h-6.948zm3.11-2.598h3.343c1.129 0 1.942-.215 2.439-.645.503-.436.754-.995.754-1.677a2.567 2.567 0 00-1.45-2.346c-.463-.24-1.017-.36-1.659-.36h-3.428v5.028zm0-7.266h3.075a3.46 3.46 0 001.45-.294c.43-.2.768-.483 1.014-.846.251-.369.377-.805.377-1.308 0-.664-.235-1.212-.704-1.642-.464-.43-1.154-.646-2.07-.646h-3.143v4.736zm15.3-7.3v17.164h-3.033V7.204h3.034zm8.735 17.415c-1.257 0-2.346-.276-3.268-.83-.922-.553-1.637-1.326-2.145-2.32-.503-.995-.755-2.158-.755-3.487 0-1.33.252-2.495.755-3.495.508-1 1.223-1.777 2.145-2.33.922-.553 2.011-.83 3.268-.83 1.258 0 2.347.277 3.269.83.922.553 1.634 1.33 2.137 2.33.509 1 .763 2.165.763 3.495s-.254 2.492-.763 3.486a5.582 5.582 0 01-2.137 2.322c-.922.553-2.011.83-3.269.83zm.017-2.43c.682 0 1.252-.187 1.71-.562.458-.38.799-.888 1.022-1.525.23-.637.344-1.346.344-2.129 0-.787-.114-1.5-.344-2.137-.223-.642-.564-1.154-1.022-1.534-.458-.38-1.028-.57-1.71-.57-.698 0-1.28.19-1.743.57-.458.38-.802.892-1.03 1.534-.224.637-.336 1.35-.336 2.137 0 .783.112 1.492.335 2.13.23.636.573 1.144 1.031 1.524.464.375 1.045.562 1.743.562zm14.325 7.274c-1.09 0-2.025-.148-2.807-.444-.783-.29-1.411-.681-1.886-1.173a4.063 4.063 0 01-.989-1.634l2.732-.662c.123.251.302.5.537.745.234.252.55.459.947.62.402.168.907.252 1.517.252.86 0 1.572-.21 2.137-.628.564-.414.846-1.096.846-2.045v-2.44h-.15a4.308 4.308 0 01-.688.965c-.296.33-.69.606-1.182.83-.486.223-1.098.334-1.835.334-.989 0-1.886-.231-2.69-.695-.8-.47-1.436-1.168-1.911-2.095-.47-.933-.704-2.101-.704-3.503 0-1.414.234-2.607.704-3.58.475-.977 1.114-1.717 1.92-2.22a4.931 4.931 0 012.69-.763c.754 0 1.374.129 1.86.386.491.251.883.556 1.173.913.29.352.511.685.662.998h.168v-2.13h2.992v13.083c0 1.101-.263 2.012-.788 2.733-.525.72-1.243 1.26-2.154 1.617-.91.358-1.944.537-3.1.537zm.025-7.66c.643 0 1.19-.156 1.643-.469.453-.313.796-.763 1.03-1.35.236-.586.353-1.29.353-2.111 0-.81-.117-1.52-.352-2.129-.23-.609-.57-1.081-1.023-1.416-.447-.341-.997-.512-1.65-.512-.677 0-1.241.176-1.694.528-.452.352-.793.836-1.022 1.45-.23.61-.344 1.302-.344 2.079 0 .788.115 1.478.344 2.07.235.586.578 1.045 1.03 1.374.459.324 1.02.486 1.685.486zm23.953-8.808h-3.135a3.898 3.898 0 00-.494-1.366 3.665 3.665 0 00-2.12-1.651 4.773 4.773 0 00-1.467-.218c-.933 0-1.76.235-2.48.704-.722.464-1.286 1.146-1.694 2.045-.408.894-.611 1.986-.611 3.277 0 1.313.203 2.42.611 3.319.414.894.978 1.57 1.693 2.028.721.453 1.545.679 2.473.679.514 0 .994-.067 1.441-.201.453-.14.858-.344 1.215-.612a3.741 3.741 0 001.433-2.33l3.135.017a6.746 6.746 0 01-.763 2.296 6.757 6.757 0 01-1.517 1.894 6.983 6.983 0 01-2.195 1.274c-.839.302-1.769.453-2.791.453-1.509 0-2.855-.35-4.04-1.048-1.184-.698-2.118-1.707-2.8-3.026-.68-1.318-1.022-2.9-1.022-4.743 0-1.85.344-3.43 1.031-4.744.688-1.318 1.623-2.327 2.808-3.025 1.184-.699 2.525-1.048 4.023-1.048a8.54 8.54 0 012.665.403 6.836 6.836 0 012.196 1.181 6.305 6.305 0 011.584 1.894c.419.743.692 1.593.821 2.548zm5.747 3.83v7.543h-3.034V7.204h2.967v6.478h.151a3.728 3.728 0 011.399-1.718c.637-.424 1.448-.637 2.431-.637.894 0 1.673.188 2.338.562.665.374 1.179.922 1.542 1.643.369.72.553 1.6.553 2.64v8.196h-3.033V16.64c0-.866-.224-1.54-.671-2.02-.441-.486-1.062-.73-1.86-.73-.537 0-1.017.118-1.442.353a2.46 2.46 0 00-.989.997c-.235.436-.352.964-.352 1.584zm15.144 7.803c-.815 0-1.55-.145-2.204-.436a3.598 3.598 0 01-1.542-1.308c-.374-.575-.561-1.285-.561-2.128 0-.727.134-1.327.402-1.802a3.11 3.11 0 011.098-1.14c.463-.285.986-.5 1.567-.645.587-.151 1.193-.26 1.819-.327a71.745 71.745 0 001.835-.21c.469-.067.81-.167 1.022-.301.218-.14.327-.355.327-.646v-.05c0-.631-.187-1.12-.561-1.467-.375-.346-.914-.52-1.618-.52-.743 0-1.332.163-1.768.487-.43.324-.721.707-.872 1.148l-2.832-.402c.223-.782.592-1.436 1.106-1.961a4.807 4.807 0 011.886-1.19c.743-.269 1.564-.403 2.464-.403.62 0 1.237.073 1.852.218a5.21 5.21 0 011.684.721c.509.33.917.78 1.224 1.35.313.57.469 1.282.469 2.136v8.616h-2.916V22.6h-.101a3.7 3.7 0 01-.779 1.005c-.33.308-.746.556-1.249.746-.497.184-1.081.277-1.752.277zm.788-2.23c.609 0 1.137-.12 1.584-.36.447-.246.791-.57 1.031-.972.246-.402.369-.841.369-1.316v-1.517c-.095.078-.257.151-.486.218a6.88 6.88 0 01-.755.176c-.279.05-.556.095-.829.134-.274.04-.512.073-.713.1a5.31 5.31 0 00-1.215.302 2.01 2.01 0 00-.846.587c-.207.246-.311.564-.311.956 0 .558.204.98.612 1.265.408.285.928.427 1.559.427zm9.06 1.97V11.495h3.034v12.873h-3.034zm1.525-14.7c-.48 0-.894-.16-1.24-.478-.347-.324-.52-.712-.52-1.165 0-.458.173-.846.52-1.165.346-.324.76-.486 1.24-.486.486 0 .9.162 1.24.486.347.319.52.707.52 1.165 0 .453-.173.841-.52 1.165-.34.319-.754.478-1.24.478zm7.662 7.157v7.543h-3.034V11.495h2.9v2.187h.151a3.679 3.679 0 011.416-1.718c.654-.424 1.462-.637 2.423-.637.888 0 1.662.19 2.321.57.665.38 1.179.93 1.542 1.651.369.721.55 1.595.545 2.623v8.197h-3.034V16.64c0-.86-.223-1.534-.67-2.02-.442-.486-1.054-.73-1.836-.73-.531 0-1.003.118-1.416.353a2.44 2.44 0 00-.964.997c-.229.436-.344.964-.344 1.584z" fill="#fff"/><path fill-rule="evenodd" clip-rule="evenodd" d="M.68 17.189a.961.961 0 010-1.36l9.316-9.316a.961.961 0 011.36 0l2.21 2.21-7.047 7.047a.961.961 0 000 1.36l7.106 7.105-2.27 2.27a.961.961 0 01-1.359 0L.68 17.189zm15.829 4.163l-2.884 2.883 2.21 2.21a.961.961 0 001.36 0l2.204-2.203 2.204 2.204a.961.961 0 001.36 0l9.316-9.316a.961.961 0 000-1.36l-9.316-9.316a.961.961 0 00-1.36 0L19.4 8.658l-2.204-2.204a.961.961 0 00-1.36 0l-2.27 2.27 2.885 2.883-4.163 4.163a.961.961 0 000 1.36l4.222 4.222zm-.06-9.745l4.223 4.222a.961.961 0 010 1.36l-4.163 4.163 2.89 2.89 7.112-7.113a.961.961 0 000-1.359l-7.112-7.112-2.95 2.95z" fill="#6944FF"/></svg>