<svg xmlns="http://www.w3.org/2000/svg" xmlns:xlink="http://www.w3.org/1999/xlink" width="0" height="0" style="position:absolute">
	
		<symbol id="icon-align-left" viewBox="0 0 20 21">
			<path d="M1.75 5.96c0-.42.34-.75.75-.75h15a.75.75 0 0 1 0 1.5h-15a.75.75 0 0 1-.75-.75zm0 3.33c0-.41.34-.75.75-.75h11.67a.75.75 0 0 1 0 1.5H2.5a.75.75 0 0 1-.75-.75zm0 3.34c0-.42.34-.75.75-.75h15a.75.75 0 0 1 0 1.5h-15a.75.75 0 0 1-.75-.75zm0 3.33c0-.42.34-.75.75-.75h11.67a.75.75 0 0 1 0 1.5H2.5a.75.75 0 0 1-.75-.75z"></path>
		</symbol>
	
		<symbol id="icon-bar-chart" viewBox="0 0 20 21">
			<path d="M10 3.54c.41 0 .75.34.75.75v13.34a.75.75 0 0 1-1.5 0V4.29c0-.41.34-.75.75-.75zm5 5c.41 0 .75.34.75.75v8.34a.75.75 0 0 1-1.5 0V9.29c0-.41.34-.75.75-.75zM5 11.88c.41 0 .75.33.75.75v5a.75.75 0 0 1-1.5 0v-5c0-.42.34-.75.75-.75z"></path>
		</symbol>
	
		<symbol id="icon-box" viewBox="0 0 20 20">
			<path fill-rule="evenodd" d="M0 2.5c0-.5.3-.9.8-.9h18.4c.5 0 .9.4.9.9v4.2c0 .5-.4.9-1 .9h-.7v9.9c0 .5-.4.9-.9.9h-15a.9.9 0 0 1-.9-.9v-10H.8a.9.9 0 0 1-.9-.8V2.5zm3.4 5v9.1h13.2v-9H3.4zm14.9-1.7H1.7V3.4h16.6v2.4zM7.4 10c0-.5.4-.9 1-.9h3.3a.9.9 0 1 1 0 1.8H8.3a.9.9 0 0 1-.9-.9z"></path>
		</symbol>
	
		<symbol id="icon-chevron-down" viewBox="0 0 20 20">
			<path d="M4.363 6.864a.9.9 0 0 1 1.273 0L10 11.227l4.363-4.363a.9.9 0 0 1 1.273 1.272l-5 5a.9.9 0 0 1-1.273 0l-5-5a.9.9 0 0 1 0-1.272z"></path>
		</symbol>
	
		<symbol id="icon-clock" viewBox="0 0 20 20">
			<path d="M10 2.67a7.33 7.33 0 1 0 0 14.66 7.33 7.33 0 0 0 0-14.66zM.67 10a9.33 9.33 0 1 1 18.66 0A9.33 9.33 0 0 1 .67 10zM10 4a1 1 0 0 1 1 1v4.38l2.78 1.4a1 1 0 1 1-.9 1.78L9.56 10.9A1 1 0 0 1 9 10V5a1 1 0 0 1 1-1z"></path>
		</symbol>
	
		<symbol id="icon-close" viewBox="0 0 16 16">
			<path d="M8 9.4l-4.3 4.3-1.4-1.4L6.6 8 2.3 3.7l1.4-1.4L8 6.6l4.3-4.3 1.4 1.4L9.4 8l4.3 4.3-1.4 1.4L8 9.4z"></path>
		</symbol>
	
		<symbol id="icon-copy" viewBox="0 0 16 16">
			<path d="M2.67 2.08a.58.58 0 0 0-.59.59v6a.58.58 0 0 0 .59.58h.66a.75.75 0 0 1 0 1.5h-.66A2.08 2.08 0 0 1 .58 8.67v-6A2.08 2.08 0 0 1 2.67.58h6a2.08 2.08 0 0 1 2.08 2.09v.66a.75.75 0 0 1-1.5 0v-.66a.58.58 0 0 0-.58-.59h-6zm4.66 4.67a.58.58 0 0 0-.58.58v6c0 .33.26.59.58.59h6c.33 0 .59-.26.59-.59v-6a.58.58 0 0 0-.59-.58h-6zm-2.08.58c0-1.15.93-2.08 2.08-2.08h6c1.15 0 2.09.93 2.09 2.08v6c0 1.15-.94 2.09-2.09 2.09h-6a2.08 2.08 0 0 1-2.08-2.09v-6z"></path>
		</symbol>
	
		<symbol id="icon-cross" viewBox="0 0 14 14">
			<path d="M2.97 2.97c.3-.3.77-.3 1.06 0L7 5.94l2.97-2.97a.75.75 0 1 1 1.06 1.06L8.06 7l2.97 2.97a.75.75 0 1 1-1.06 1.06L7 8.06l-2.97 2.97a.75.75 0 1 1-1.06-1.06L5.94 7 2.97 4.03a.75.75 0 0 1 0-1.06z"></path>
		</symbol>
	
		<symbol id="icon-dollar" viewBox="0 0 20 20">
			<path d="M10-.07c.5 0 .9.4.9.9v2.44h3.27a.9.9 0 0 1 0 1.8H10.9V9.1h1.18a3.82 3.82 0 1 1 0 7.63H10.9v2.44a.9.9 0 0 1-1.8 0v-2.44H5a.9.9 0 1 1 0-1.8h4.1V10.9H7.92a3.82 3.82 0 1 1 0-7.63H9.1V.83c0-.5.4-.9.9-.9zm-.9 5.14H7.92a2.02 2.02 0 1 0 0 4.03H9.1V5.07zm1.8 5.83v4.03h1.18a2.02 2.02 0 1 0 0-4.03H10.9z"></path>
		</symbol>
	
		<symbol id="icon-dots" viewBox="0 0 20 20">
			<path d="M8.33 4.17a1.67 1.67 0 1 0 3.34 0 1.67 1.67 0 0 0-3.34 0zm1.67 7.5a1.67 1.67 0 1 1 0-3.34 1.67 1.67 0 0 1 0 3.34zm0 5.83a1.67 1.67 0 1 1 0-3.33 1.67 1.67 0 0 1 0 3.33z"></path>
		</symbol>
	
		<symbol id="icon-edit" viewBox="0 0 20 21">
			<path d="M15 4.1c-.27 0-.53.11-.72.3L4.01 14.69l-.48 1.91 1.92-.48L15.72 5.85A1.02 1.02 0 0 0 15 4.1zm-1.78-.75a2.52 2.52 0 0 1 3.56 3.56L6.36 17.32a.7.7 0 0 1-.34.2l-3.34.83a.75.75 0 0 1-.9-.9l.83-3.34c.03-.13.1-.25.2-.35l10.4-10.41zM9.25 17.63c0-.42.34-.75.75-.75h7.5a.75.75 0 0 1 0 1.5H10a.75.75 0 0 1-.75-.75z"></path>
		</symbol>
	
		<symbol id="icon-exit" viewBox="0 0 20 20">
			<path d="M4.2 3.4a.8.8 0 0 0-.8.8v11.6a.8.8 0 0 0 .8.8h3.3a.9.9 0 1 1 0 1.8H4.2a2.6 2.6 0 0 1-2.6-2.6V4.2a2.6 2.6 0 0 1 2.6-2.6h3.3a.9.9 0 1 1 0 1.8H4.2zm8.5 1.8c.3-.4 1-.4 1.3 0l4 4.2c.4.3.4.9 0 1.2l-4 4.2a.9.9 0 1 1-1.3-1.3l2.6-2.6H7.5a.9.9 0 0 1 0-1.8h7.8l-2.6-2.6a.9.9 0 0 1 0-1.3z"></path>
		</symbol>
	
		<symbol id="icon-flag" viewBox="0 0 20 21">
			<path d="M3.78 2.35a7.75 7.75 0 0 1 2.89-.47c1.4 0 2.55.46 3.57.87l.04.01c1.05.42 1.97.78 3.05.78 1.17 0 1.9-.2 2.33-.36a2.31 2.31 0 0 0 .5-.27.75.75 0 0 1 1.26.55v10c0 .2-.08.39-.22.53l-.53-.53.53.53h-.01V14l-.02.02a1.58 1.58 0 0 1-.26.2c-.16.1-.39.23-.7.35-.61.25-1.54.47-2.88.47-1.4 0-2.55-.46-3.57-.87l-.04-.01a8.03 8.03 0 0 0-3.05-.78 6.28 6.28 0 0 0-2.59.48v5.43a.75.75 0 0 1-1.5 0V3.46c0-.2.08-.4.22-.53l.53.53-.53-.53h.01V2.9a1.17 1.17 0 0 1 .09-.07l.19-.14c.16-.1.38-.23.7-.35zm.3 1.5v8.39a8.24 8.24 0 0 1 6.16.5l.04.02c1.05.42 1.97.78 3.05.78a6.28 6.28 0 0 0 2.59-.48V4.68a8.24 8.24 0 0 1-6.16-.5l-.04-.02a8.03 8.03 0 0 0-3.05-.78 6.28 6.28 0 0 0-2.59.48z"></path>
		</symbol>
	
		<symbol id="icon-google-colored" viewBox="0 0 21 21">
			<path d="M20.055 10.71c0-.68-.055-1.364-.173-2.033H10.45v3.851h5.401a4.628 4.628 0 0 1-1.999 3.039v2.498h3.223c1.892-1.741 2.98-4.313 2.98-7.356z" fill="#4285F4"></path><path d="M10.45 20.48c2.697 0 4.971-.886 6.629-2.414l-3.223-2.499c-.896.61-2.054.955-3.402.955-2.61 0-4.821-1.76-5.615-4.126H1.514v2.576a10.001 10.001 0 0 0 8.936 5.508z" fill="#34A853"></path><path d="M4.835 12.396a5.99 5.99 0 0 1 0-3.829V5.991H1.514a10.009 10.009 0 0 0 0 8.98l3.321-2.575z" fill="#FBBC04"></path><path d="M10.45 4.437a5.434 5.434 0 0 1 3.836 1.5l2.855-2.856A9.611 9.611 0 0 0 10.45.48a9.998 9.998 0 0 0-8.936 5.51l3.321 2.576c.79-2.37 3.006-4.13 5.615-4.13z" fill="#EA4335"></path>
		</symbol>
	
		<symbol id="icon-image" viewBox="0 0 20 21">
			<path fill-rule="evenodd" d="M4.17 4.2c-.51 0-.92.42-.92.93v11.66c0 .41.27.76.65.88l8.9-8.9c.3-.3.77-.3 1.06 0l2.89 2.88V5.13c0-.51-.41-.92-.92-.92H4.17zm12.58 9.57l-3.42-3.42-7.35 7.36h9.85c.51 0 .92-.41.92-.92v-3.02zm-15-8.64A2.42 2.42 0 0 1 4.17 2.7h11.66a2.42 2.42 0 0 1 2.42 2.42v11.66a2.42 2.42 0 0 1-2.42 2.42H4.17a2.42 2.42 0 0 1-2.42-2.42V5.13zm5.33 2.41a.5.5 0 1 0 0 1 .5.5 0 0 0 0-1zm-2 .5a2 2 0 1 1 4 0 2 2 0 0 1-4 0z" clip-rule="evenodd"></path>
		</symbol>
	
		<symbol id="icon-info" viewBox="0 0 20 20">
			<path d="M10 2.67a7.33 7.33 0 1 0 0 14.66 7.33 7.33 0 0 0 0-14.66zM.67 10a9.33 9.33 0 1 1 18.66 0A9.33 9.33 0 0 1 .67 10zM9 6.67a1 1 0 1 1 1 1 1 1 0 0 1-1-1zM10 9a1 1 0 0 1 1 1v3.33a1 1 0 1 1-2 0V10a1 1 0 0 1 1-1z"></path>
		</symbol>
	
		<symbol id="icon-instagram" viewBox="0 0 20 21">
			<path d="M5.83 3.38a3.42 3.42 0 0 0-3.41 3.41v8.34a3.42 3.42 0 0 0 3.41 3.41h8.34a3.42 3.42 0 0 0 3.41-3.41V6.79a3.42 3.42 0 0 0-3.41-3.41H5.83zM.92 6.79c0-2.71 2.2-4.91 4.91-4.91h8.34c2.71 0 4.91 2.2 4.91 4.91v8.34c0 2.71-2.2 4.91-4.91 4.91H5.83a4.92 4.92 0 0 1-4.91-4.91V6.79zm12.91-.41c0-.42.34-.75.75-.75h.01a.75.75 0 0 1 0 1.5.75.75 0 0 1-.76-.75zm-3.41 1.99a2.58 2.58 0 1 0-.76 5.1 2.58 2.58 0 0 0 .76-5.1zM8.16 7.3a4.08 4.08 0 1 1 3.76 7.25A4.08 4.08 0 0 1 8.16 7.3z"></path>
		</symbol>
	
		<symbol id="icon-layers" viewBox="0 0 20 20">
			<path d="M9.6.86a.9.9 0 0 1 .8 0l8.34 4.17a.9.9 0 0 1 0 1.6L10.4 10.8a.9.9 0 0 1-.8 0L1.26 6.64a.9.9 0 0 1 0-1.61L9.6.86zM3.68 5.83L10 9l6.32-3.16L10 2.67 3.68 5.83zM.86 9.6a.9.9 0 0 1 1.2-.4L10 13.16l7.93-3.96a.9.9 0 0 1 .8 1.6l-8.33 4.17a.9.9 0 0 1-.8 0L1.26 10.8a.9.9 0 0 1-.4-1.2zm0 4.16a.9.9 0 0 1 1.2-.4L10 17.33l7.93-3.97a.9.9 0 0 1 .8 1.61l-8.33 4.17a.9.9 0 0 1-.8 0l-8.34-4.17a.9.9 0 0 1-.4-1.2z"></path>
		</symbol>
	
		<symbol id="icon-list" viewBox="0 0 20 21">
			<path d="M1.75 5.96a.75.75 0 1 1 .76.75H2.5a.75.75 0 0 1-.75-.75zm4.17 0c0-.42.33-.75.75-.75H17.5a.75.75 0 0 1 0 1.5H6.67a.75.75 0 0 1-.75-.75zm-4.17 5a.75.75 0 1 1 .76.75H2.5a.75.75 0 0 1-.75-.75zm4.17 0c0-.42.33-.75.75-.75H17.5a.75.75 0 0 1 0 1.5H6.67a.75.75 0 0 1-.75-.75zm-4.17 5a.75.75 0 1 1 .76.75H2.5a.75.75 0 0 1-.75-.75zm4.17 0c0-.42.33-.75.75-.75H17.5a.75.75 0 0 1 0 1.5H6.67a.75.75 0 0 1-.75-.75z"></path>
		</symbol>
	
		<symbol id="icon-logo" viewBox="0 0 397 85">
			<path d="M101.461 61.494V17.669h16.777c3.167 0 5.799.499 7.896 1.497 2.112.985 3.688 2.333 4.73 4.045 1.055 1.712 1.583 3.652 1.583 5.82 0 1.784-.342 3.31-1.027 4.58a8.646 8.646 0 0 1-2.76 3.06 11.688 11.688 0 0 1-3.874 1.69v.428c1.555.086 3.046.564 4.473 1.434 1.441.856 2.618 2.069 3.531 3.638.913 1.57 1.369 3.467 1.369 5.692 0 2.269-.549 4.309-1.648 6.12-1.098 1.798-2.753 3.217-4.964 4.259-2.211 1.041-4.993 1.562-8.346 1.562h-17.74zm7.939-6.634h8.539c2.881 0 4.957-.55 6.227-1.648 1.284-1.112 1.926-2.539 1.926-4.28 0-1.298-.321-2.467-.963-3.509-.642-1.056-1.555-1.883-2.739-2.482-1.184-.614-2.597-.92-4.237-.92H109.4v12.84zm0-18.553h7.854c1.369 0 2.603-.25 3.702-.749 1.098-.513 1.961-1.234 2.589-2.161.642-.942.963-2.054.963-3.338 0-1.698-.599-3.096-1.797-4.195-1.185-1.098-2.946-1.647-5.286-1.647H109.4v12.09zm39.07-18.638v43.825h-7.747V17.669h7.747zm22.303 44.467c-3.21 0-5.992-.706-8.346-2.119-2.354-1.412-4.18-3.388-5.478-5.927-1.284-2.54-1.926-5.507-1.926-8.902 0-3.396.642-6.37 1.926-8.924 1.298-2.553 3.124-4.536 5.478-5.949 2.354-1.412 5.136-2.118 8.346-2.118s5.992.706 8.346 2.118c2.353 1.413 4.172 3.396 5.456 5.95 1.299 2.553 1.948 5.527 1.948 8.923 0 3.395-.649 6.362-1.948 8.902-1.284 2.54-3.103 4.515-5.456 5.927-2.354 1.413-5.136 2.119-8.346 2.119zm.043-6.206c1.74 0 3.195-.478 4.365-1.434 1.17-.97 2.04-2.268 2.611-3.894.585-1.627.877-3.438.877-5.436 0-2.011-.292-3.83-.877-5.456-.571-1.641-1.441-2.946-2.611-3.916-1.17-.97-2.625-1.455-4.365-1.455-1.784 0-3.267.485-4.451 1.455-1.17.97-2.047 2.275-2.632 3.916-.571 1.626-.856 3.445-.856 5.456 0 1.998.285 3.81.856 5.436.585 1.626 1.462 2.924 2.632 3.894 1.184.956 2.667 1.434 4.451 1.434zm36.576 18.574c-2.782 0-5.171-.378-7.169-1.134-1.997-.741-3.602-1.74-4.814-2.996-1.213-1.255-2.055-2.646-2.525-4.172l6.976-1.69c.313.641.77 1.276 1.369 1.904.599.642 1.405 1.17 2.418 1.583 1.027.428 2.318.642 3.873.642 2.197 0 4.016-.535 5.457-1.605 1.441-1.055 2.162-2.796 2.162-5.221v-6.227h-.386c-.399.799-.984 1.619-1.754 2.46-.756.842-1.762 1.548-3.018 2.12-1.241.57-2.803.855-4.686.855-2.525 0-4.815-.592-6.869-1.776-2.04-1.198-3.667-2.982-4.879-5.35-1.198-2.382-1.798-5.364-1.798-8.945 0-3.609.6-6.655 1.798-9.137 1.212-2.497 2.846-4.387 4.9-5.67 2.055-1.299 4.344-1.948 6.869-1.948 1.926 0 3.51.328 4.751.984 1.255.642 2.254 1.42 2.996 2.333.742.899 1.305 1.747 1.69 2.546h.428v-5.435h7.64v33.404c0 2.81-.671 5.136-2.012 6.976-1.341 1.84-3.174 3.217-5.499 4.13-2.326.913-4.965 1.37-7.918 1.37zm.064-19.558c1.641 0 3.039-.4 4.194-1.199 1.156-.798 2.033-1.947 2.633-3.445.599-1.498.898-3.295.898-5.392 0-2.069-.299-3.88-.898-5.436-.585-1.555-1.456-2.76-2.611-3.616-1.141-.87-2.547-1.305-4.216-1.305-1.726 0-3.167.449-4.322 1.348-1.156.898-2.026 2.132-2.611 3.702-.585 1.555-.877 3.324-.877 5.307 0 2.011.292 3.773.877 5.285.599 1.498 1.477 2.668 2.632 3.51 1.17.827 2.604 1.24 4.301 1.24zm61.159-22.49h-8.003c-.229-1.313-.65-2.476-1.263-3.489a9.375 9.375 0 0 0-2.29-2.61 9.538 9.538 0 0 0-3.124-1.605c-1.155-.371-2.404-.557-3.745-.557-2.382 0-4.494.6-6.334 1.798-1.84 1.184-3.281 2.924-4.323 5.221-1.041 2.283-1.562 5.072-1.562 8.367 0 3.353.521 6.177 1.562 8.474 1.056 2.283 2.497 4.009 4.323 5.179 1.84 1.155 3.945 1.733 6.313 1.733 1.312 0 2.539-.171 3.68-.513a10.075 10.075 0 0 0 3.103-1.563 9.173 9.173 0 0 0 2.333-2.525c.642-.998 1.084-2.14 1.327-3.423l8.003.042a17.255 17.255 0 0 1-1.947 5.864 17.297 17.297 0 0 1-3.874 4.836c-1.597 1.384-3.466 2.468-5.606 3.252-2.14.77-4.515 1.156-7.126 1.156-3.852 0-7.29-.892-10.315-2.675-3.024-1.783-5.406-4.358-7.147-7.725-1.74-3.367-2.61-7.404-2.61-12.112 0-4.722.877-8.76 2.632-12.112 1.754-3.366 4.144-5.942 7.168-7.725 3.025-1.783 6.449-2.675 10.272-2.675 2.439 0 4.708.343 6.805 1.028 2.097.684 3.966 1.69 5.606 3.017 1.641 1.312 2.989 2.924 4.045 4.836 1.07 1.897 1.769 4.066 2.097 6.505zm14.674 9.779v19.259h-7.746V17.669h7.575V34.21h.385c.771-1.855 1.962-3.317 3.574-4.387 1.626-1.084 3.695-1.626 6.206-1.626 2.282 0 4.272.478 5.97 1.434 1.698.956 3.01 2.354 3.937 4.194.942 1.84 1.413 4.087 1.413 6.74v20.929h-7.747v-19.73c0-2.211-.57-3.93-1.712-5.157-1.127-1.241-2.71-1.862-4.75-1.862-1.37 0-2.597.3-3.681.899-1.07.585-1.912 1.434-2.525 2.546-.599 1.113-.899 2.461-.899 4.045zm38.668 19.922c-2.082 0-3.958-.37-5.628-1.112-1.654-.757-2.967-1.87-3.937-3.339-.956-1.47-1.434-3.28-1.434-5.435 0-1.855.343-3.388 1.027-4.6a7.954 7.954 0 0 1 2.804-2.911c1.184-.728 2.518-1.277 4.001-1.648a32.544 32.544 0 0 1 4.644-.834c1.926-.2 3.488-.378 4.686-.535 1.199-.172 2.069-.428 2.611-.77.556-.358.835-.907.835-1.649v-.128c0-1.612-.478-2.86-1.434-3.745-.956-.884-2.333-1.327-4.13-1.327-1.898 0-3.403.414-4.515 1.242-1.099.827-1.841 1.804-2.226 2.931l-7.233-1.027c.571-1.997 1.512-3.666 2.825-5.007 1.312-1.355 2.917-2.368 4.815-3.039 1.897-.685 3.994-1.027 6.291-1.027 1.584 0 3.16.185 4.729.556 1.569.371 3.003.985 4.301 1.84 1.299.842 2.34 1.99 3.125 3.446.799 1.455 1.198 3.274 1.198 5.457v21.998h-7.447v-4.515h-.257c-.47.913-1.134 1.769-1.99 2.568-.841.784-1.904 1.42-3.188 1.904-1.27.47-2.761.706-4.473.706zm2.012-5.692c1.555 0 2.903-.307 4.044-.92 1.142-.628 2.019-1.455 2.632-2.482a6.321 6.321 0 0 0 .942-3.36V45.83c-.243.2-.656.385-1.241.556-.571.171-1.213.321-1.926.45-.713.128-1.42.242-2.119.342-.699.1-1.305.185-1.819.257-1.155.157-2.189.413-3.102.77-.913.357-1.634.856-2.162 1.498-.528.628-.791 1.44-.791 2.44 0 1.426.52 2.503 1.562 3.23 1.041.728 2.368 1.092 3.98 1.092zm23.132 5.029v-32.87h7.747v32.87h-7.747zm3.895-37.534c-1.227 0-2.283-.407-3.167-1.22-.885-.827-1.327-1.819-1.327-2.974 0-1.17.442-2.162 1.327-2.975.884-.827 1.94-1.24 3.167-1.24 1.241 0 2.297.413 3.167 1.24.885.813 1.327 1.805 1.327 2.975 0 1.155-.442 2.147-1.327 2.974-.87.813-1.926 1.22-3.167 1.22zm19.564 18.275v19.259h-7.746v-32.87h7.404v5.586h.385a9.391 9.391 0 0 1 3.616-4.387c1.669-1.084 3.731-1.626 6.185-1.626 2.268 0 4.244.485 5.927 1.455 1.698.97 3.01 2.375 3.938 4.216.941 1.84 1.405 4.073 1.391 6.698v20.928h-7.747v-19.73c0-2.197-.571-3.916-1.712-5.157-1.127-1.241-2.689-1.862-4.686-1.862-1.356 0-2.561.3-3.617.899-1.041.585-1.861 1.434-2.461 2.546-.584 1.113-.877 2.461-.877 4.045z"></path><path fill-rule="evenodd" d="M1.736 43.889a2.455 2.455 0 0 1 0-3.472L25.523 16.63a2.455 2.455 0 0 1 3.471 0l5.644 5.644-17.993 17.992a2.455 2.455 0 0 0 0 3.472L34.79 61.882l-5.795 5.794a2.455 2.455 0 0 1-3.47 0L1.735 43.89zm40.417 10.629l-7.364 7.364 5.644 5.643a2.455 2.455 0 0 0 3.471 0l5.628-5.628 5.628 5.628a2.455 2.455 0 0 0 3.472 0l23.787-23.787a2.455 2.455 0 0 0 0-3.471L58.632 16.479a2.455 2.455 0 0 0-3.472 0l-5.628 5.628-5.628-5.628a2.455 2.455 0 0 0-3.471 0l-5.795 5.795 7.364 7.364-10.629 10.628a2.455 2.455 0 0 0 0 3.472l10.78 10.78zm-.151-24.88l10.78 10.78a2.455 2.455 0 0 1 0 3.47l-10.63 10.63 7.38 7.379 18.16-18.16a2.455 2.455 0 0 0 0-3.47l-18.16-18.16-7.53 7.53z"></path>
		</symbol>
	
		<symbol id="icon-logo-small" viewBox="0 0 16 16">
			<path fill-rule="evenodd" d="M.14 8.43a.47.47 0 0 1 0-.67l4.63-4.6a.48.48 0 0 1 .68 0l1.1 1.1-3.5 3.47a.47.47 0 0 0 0 .67l3.53 3.5-1.13 1.13a.48.48 0 0 1-.68 0L.14 8.43zm7.87 2.06L6.58 11.9l1.1 1.1c.19.18.49.18.68 0l1.1-1.09L10.54 13c.19.18.49.18.68 0l4.63-4.6a.47.47 0 0 0 0-.67l-4.63-4.6a.48.48 0 0 0-.68 0l-1.1 1.1-1.1-1.1a.48.48 0 0 0-.67 0L6.55 4.27 8 5.68 5.9 7.73a.47.47 0 0 0 0 .67L8 10.49zM8 5.68l2.1 2.08c.18.19.18.49 0 .67L8 10.5l1.44 1.42L13 8.41a.47.47 0 0 0 0-.68l-3.54-3.5L8 5.68z"></path>
		</symbol>
	
		<symbol id="icon-menu" viewBox="0 0 20 20">
			<path d="M1.5 5c0-.6.4-1 1-1h15a1 1 0 1 1 0 2h-15a1 1 0 0 1-1-1zm0 5c0-.6.4-1 1-1h15a1 1 0 1 1 0 2h-15a1 1 0 0 1-1-1zm0 5c0-.6.4-1 1-1h15a1 1 0 1 1 0 2h-15a1 1 0 0 1-1-1z"></path>
		</symbol>
	
		<symbol id="icon-menu-close" viewBox="0 0 20 20">
			<path d="M4.3 4.3a1 1 0 0 1 1.4 0L10 8.6l4.3-4.3a1 1 0 1 1 1.4 1.4L11.4 10l4.3 4.3a1 1 0 0 1-1.4 1.4L10 11.4l-4.3 4.3a1 1 0 0 1-1.4-1.4L8.6 10 4.3 5.7a1 1 0 0 1 0-1.4z"></path>
		</symbol>
	
		<symbol id="icon-pencil" viewBox="0 0 20 20">
			<path d="M15.71 2.96a1.33 1.33 0 0 0-.94.39L3.94 14.18l-.7 2.59 2.58-.7L16.65 5.22a1.33 1.33 0 0 0-.94-2.27zm-1.26-1.7a3.29 3.29 0 0 1 3.59 5.35L7.02 17.63a.98.98 0 0 1-.44.25L2.1 19.11a.98.98 0 0 1-1.2-1.2l1.23-4.5a.98.98 0 0 1 .25-.43L13.39 1.96c.3-.3.66-.54 1.06-.7z"></path>
		</symbol>
	
		<symbol id="icon-play-circle" viewBox="0 0 20 21">
			<path d="M10 3.38a7.58 7.58 0 1 0 0 15.16 7.58 7.58 0 0 0 0-15.16zM.92 10.96a9.08 9.08 0 1 1 18.16 0 9.08 9.08 0 0 1-18.16 0zm7.06-4a.75.75 0 0 1 .77.04l5 3.33a.75.75 0 0 1 0 1.25l-5 3.34a.75.75 0 0 1-1.17-.63V7.63c0-.28.16-.54.4-.67zm1.1 2.07v3.86l2.9-1.93-2.9-1.93z"></path>
		</symbol>
	
		<symbol id="icon-star" viewBox="0 0 14 14">
			<path d="M7 .42c.29 0 .55.16.67.41l1.63 3.3 3.64.54a.75.75 0 0 1 .42 1.27l-2.64 2.57.62 3.62a.75.75 0 0 1-1.08.8L7 11.2l-3.26 1.72a.75.75 0 0 1-1.08-.8l.62-3.62L.64 5.94a.75.75 0 0 1 .42-1.27l3.64-.54L6.33.83A.75.75 0 0 1 7 .42zm0 2.44L5.87 5.15a.75.75 0 0 1-.56.41l-2.53.37L4.6 7.71c.17.17.25.42.21.67l-.43 2.51L6.65 9.7a.75.75 0 0 1 .7 0l2.25 1.2-.43-2.51a.75.75 0 0 1 .21-.67l1.83-1.78-2.53-.37a.75.75 0 0 1-.56-.41L7 2.86z"></path>
		</symbol>
	
		<symbol id="icon-text" viewBox="0 0 14 14">
			<path d="M1.58 2.33c0-.41.34-.75.75-.75h9.34c.41 0 .75.34.75.75v1.75a.75.75 0 1 1-1.5 0v-1H7.75v7.84h1a.75.75 0 0 1 0 1.5h-3.5a.75.75 0 0 1 0-1.5h1V3.08H3.08v1a.75.75 0 1 1-1.5 0V2.33z"></path>
		</symbol>
	
		<symbol id="icon-tick" viewBox="0 0 16 16">
			<path d="M13.86 3.47c.3.3.3.77 0 1.06l-7.33 7.33c-.3.3-.77.3-1.06 0L2.14 8.53A.75.75 0 0 1 3.2 7.47l2.8 2.8 6.8-6.8c.3-.3.77-.3 1.06 0z"></path>
		</symbol>
	
		<symbol id="icon-trash" viewBox="0 0 16 16">
			<path fill-rule="evenodd" d="M6.67 2.08a.58.58 0 0 0-.59.59v.58h3.84v-.58a.58.58 0 0 0-.59-.59H6.67zm4.75 1.17v-.58A2.08 2.08 0 0 0 9.33.58H6.67a2.08 2.08 0 0 0-2.09 2.09v.58H2a.75.75 0 0 0 0 1.5h.58v8.58a2.08 2.08 0 0 0 2.09 2.09h6.66a2.08 2.08 0 0 0 2.09-2.09V4.75H14a.75.75 0 0 0 0-1.5h-2.58zm-7.34 1.5v8.58a.58.58 0 0 0 .59.59h6.66a.58.58 0 0 0 .59-.59V4.75H4.08zm2.59 1.83c.41 0 .75.34.75.75v4a.75.75 0 0 1-1.5 0v-4c0-.41.33-.75.75-.75zm2.66 0c.42 0 .75.34.75.75v4a.75.75 0 1 1-1.5 0v-4c0-.41.34-.75.75-.75z"></path>
		</symbol>
	
		<symbol id="icon-users" viewBox="0 0 20 21">
			<path d="M7.5 4.2a2.58 2.58 0 1 0 0 5.18 2.58 2.58 0 0 0 0-5.17zM3.42 6.8a4.08 4.08 0 1 1 8.16 0 4.08 4.08 0 0 1-8.16 0zm9.19-3.42c.1-.4.5-.64.9-.54a4.08 4.08 0 0 1 0 7.91.75.75 0 0 1-.36-1.45 2.58 2.58 0 0 0 0-5 .75.75 0 0 1-.54-.92zM1.28 13.9c.76-.76 1.8-1.2 2.89-1.2h6.66a4.08 4.08 0 0 1 4.09 4.1v1.66a.75.75 0 1 1-1.5 0v-1.67a2.58 2.58 0 0 0-2.59-2.58H4.17a2.58 2.58 0 0 0-2.59 2.58v1.67a.75.75 0 1 1-1.5 0v-1.67c0-1.08.43-2.12 1.2-2.89zm14.66-.52c.1-.4.51-.64.91-.54a4.08 4.08 0 0 1 3.07 3.95v1.67a.75.75 0 1 1-1.5 0v-1.67a2.58 2.58 0 0 0-1.94-2.5.75.75 0 0 1-.54-.91z"></path>
		</symbol>
	
</svg>
